# xmcd CD database file
#
# Track frame offsets:
#	150
#	34745
#	55776
#	80172
#	122792
#
# Disc length: 2794 seconds
#
# Revision: 0
# Processed by: cddbd v1.5.1PL0 Copyright (c) Steve Scherf et al.
# Submitted via: CDex 1.51
#
DISCID=3d0ae805
DTITLE=John Butcher - Cavern With Nightlife
DYEAR=2004
DGENRE=Jazz
TTITLE0=Ideoplast
TTITLE1=Ashfall
TTITLE2=Mustard Bath
TTITLE3=Ejecta
TTITLE4=Practical Luxury
EXTD=YEAR: 2004
EXTT0=
EXTT1=
EXTT2=
EXTT3=
EXTT4=
PLAYORDER=
